<?xml  version="1.0" encoding="UTF-8"?>
<!DOCTYPE svg PUBLIC "-//W3C//DTD SVG 1.0//EN" "http://www.w3.org/TR/2001/REC-SVG-20010904/DTD/svg10.dtd" >
<svg xmlns="http://www.w3.org/2000/svg" >
<metadata>
<version>1.0</version>
<id><![CDATA[Proxima N W01 X Cd Thin It]]></id>
<vendor>Monotype Imaging Inc.</vendor>
<credits>
<name>Fonts.com WebFonts</name>
<URL>http://webfonts.fonts.com</URL>
<role>Home of the Web fonts</role>
</credits>
<license>
<URL>http://webfonts.fonts.com/Legal</URL>
</license>
<copyright><![CDATA[Copyright (c) Mark Simonson, 2005. All rights reserved.]]></copyright>
<trademark><![CDATA[Proxima Nova is a trademark of Mark Simonson.]]></trademark>
<licensee>
<name></name>
</licensee>
</metadata>
<defs >
<font horiz-adv-x="317" id="fb6614cc-d194-4d43-9e24-19182c7821b6">
<font-face font-family="" panose-1="2 0 5 6 3 0 0 2 0 4" ascent="741" descent="-259" units-per-em="1000" alphabetic="0">
</font-face>
<missing-glyph horiz-adv-x="0" />

<glyph unicode="&#xA;" />
<glyph unicode="&#xD;" horiz-adv-x="0" />
<glyph unicode=" " horiz-adv-x="180" />
<glyph unicode="!" horiz-adv-x="208" d="M75 161L176 667H218L95 161H75ZM52 -9Q39 -9 31 -1T22 21Q22 36 32 46T58 56Q71 56 79 48T88 26Q88 11 78 1T52 -9Z"  />
<glyph unicode="&quot;" horiz-adv-x="290" d="M119 443L149 644Q151 659 158 668T180 677Q190 677 196 671T203 653Q203 649 202 644T199 636L140 443H119ZM235 443L265 644Q267 659 274 668T296 677Q306 677 312 671T319 653Q319 649 318 644T315 636L256 443H235Z"  />
<glyph unicode="#" horiz-adv-x="395" d="M104 0L192 191H114L28 0H-5L82 191H6L18 220H95L199 447H122L133 476H211L297 667H330L244 476H321L407 667H439L353 476H428L417 447H340L236 220H314L302 191H223L137 0H104ZM308 447H231L127 220H203L308 447Z"  />
<glyph unicode="$" horiz-adv-x="304" d="M92 -12Q60 -9 32 7T-12 50L16 74Q27 50 50 35T99 18L170 336Q157 354 145 373T123 412T107 455T101 504Q101 541 113 572T146 626T193 663T246 678L266 768H298L277 675Q299 670 317 659T348 631L324 607Q303 639 271 646L204 347Q227 312 245 273T263 186Q263 147 253 114T224 54T180 12T125 -10L105 -100H73L92 -12ZM134 504Q134 472 147 443T180 383L239 647Q216 644 197 632T163 601T142 556T134 504ZM231 186Q231 218 221 246T194 300L132 22Q172 34 201 76T231 186Z"  />
<glyph unicode="%" horiz-adv-x="555" d="M73 0L489 667H522L105 0H73ZM362 -12Q336 -12 318 -2T289 24T272 62T267 106Q267 149 279 187T312 253T357 298T408 314Q434 314 452 304T481 278T498 240T503 196Q503 152 491 115T458 49T413 4T362 -12ZM362 15Q381 15 400 28T435 66T460 123T470 194Q470 242 454 264T408 287Q388 287 369 274T335 236T310 179T300 108Q300 60 316 38T362 15ZM186 351Q160 351 142 361T113 387T96 425T91 469Q91 512 103 550T136 616T181 661T232 677Q258 677 276 667T305 641T322 603T327 559Q327 515 315 478T282 412T237 367T186 351ZM186 378Q205 378 224 391T259 429T284 486T294 557Q294 605 278 627T232 650Q212 650 193 637T159 599T134 542T124 471Q124 423 140 401T186 378Z"  />
<glyph unicode="&amp;" horiz-adv-x="358" d="M248 0L224 70Q197 32 168 10T106 -12Q68 -12 44 16T19 97Q19 146 30 185T61 255T105 313T155 364Q152 389 151 412T150 462Q150 504 160 543T186 611T224 659T267 677Q291 677 309 659T327 591Q327 550 315 518T284 459T239 407T189 358Q192 331 197 304T209 248Q217 213 222 188T234 142Q257 183 276 226T309 303L337 292Q316 239 294 191T246 102Q254 80 262 56T285 0H248ZM107 18Q134 18 161 43T213 107Q202 140 194 170T181 225Q174 256 169 281T160 330Q139 308 120 284T86 232T63 170T54 95Q54 58 69 38T107 18ZM183 448Q183 434 183 420T185 392Q207 413 227 434T263 480T288 533T297 595Q297 629 287 638T263 647Q247 647 233 629T207 583T190 519T183 448Z"  />
<glyph unicode="&apos;" horiz-adv-x="176" d="M119 443L149 644Q151 659 158 668T180 677Q190 677 196 671T203 653Q203 649 202 644T199 636L140 443H119Z"  />
<glyph unicode="(" horiz-adv-x="167" d="M34 -199Q17 -111 17 -14Q17 87 32 181T76 362T143 529T229 685L246 677Q205 605 169 519T106 340T62 150T46 -43Q46 -53 46 -71T47 -110T49 -154T53 -194L34 -199Z"  />
<glyph unicode=")" horiz-adv-x="167" d="M132 685Q149 597 149 500Q149 399 134 305T90 124T23 -43T-63 -199L-80 -191Q-40 -119 -4 -33T60 146T104 336T120 529Q120 539 120 557T119 596T117 640T113 680L132 685Z"  />
<glyph unicode="*" horiz-adv-x="288" d="M164 409L197 529L83 476L74 503L192 545L99 609L119 633L204 559L224 677H255L222 557L336 610L345 583L228 541L320 477L300 453L215 527L195 409H164Z"  />
<glyph unicode="+" horiz-adv-x="374" d="M220 322L184 160H152L188 322H46L53 352H195L229 508H261L227 352H369L362 322H220Z"  />
<glyph unicode="&#x2c;" horiz-adv-x="208" d="M89 18Q89 -1 82 -20T61 -57T32 -88T0 -112L-18 -92Q10 -77 29 -54T54 -8H48Q37 -8 30 0T22 20Q22 35 32 45T57 56Q71 56 80 47T89 18Z"  />
<glyph unicode="-" horiz-adv-x="230" d="M26 227L32 257H202L196 227H26Z"  />
<glyph unicode="." horiz-adv-x="208" d="M52 -9Q39 -9 31 -1T22 21Q22 36 32 46T58 56Q71 56 79 48T88 26Q88 11 78 1T52 -9Z"  />
<glyph unicode="/" horiz-adv-x="177" d="M-59 -20L244 687H276L-28 -20H-59Z"  />
<glyph unicode="0" horiz-adv-x="377" d="M145 -12Q102 -12 74 24T46 147Q46 196 53 254T73 371T105 485T150 583T205 651T270 677Q313 677 341 641T369 518Q369 469 362 411T342 294T310 180T265 82T210 14T145 -12ZM147 18Q175 18 200 44T247 114T284 211T313 321T331 431T337 524Q337 584 322 615T268 647Q240 647 215 621T168 551T131 454T102 344T84 234T78 141Q78 81 93 50T147 18Z"  />
<glyph unicode="1" horiz-adv-x="243" d="M85 0L222 621L92 506L75 529L234 667H264L117 0H85Z"  />
<glyph unicode="2" horiz-adv-x="348" d="M6 0L14 36Q110 166 171 251T266 393T314 487T327 560Q327 600 308 623T256 647Q227 647 202 628T151 566L123 583Q152 628 185 652T256 677Q304 677 333 648T363 565Q363 539 357 513T337 455T299 384T240 294T157 178T46 30H247L241 0H6Z"  />
<glyph unicode="3" horiz-adv-x="347" d="M126 -12Q78 -12 46 20T4 121L38 131Q51 18 126 18Q155 18 178 37T218 88T242 158T251 234Q251 285 227 307T172 330Q164 330 158 330T146 329L154 361Q159 360 173 360T195 360Q225 360 248 377T286 423T309 486T317 557Q317 605 298 626T246 647Q213 647 187 623T143 563L115 579Q124 598 138 616T169 647T206 669T250 677Q298 677 326 647T354 557Q354 525 346 490T322 425T282 372T225 341Q259 327 272 293T285 221Q285 180 274 139T242 64T192 9T126 -12Z"  />
<glyph unicode="4" horiz-adv-x="310" d="M157 0L200 195H1L8 228L294 667H336L238 225H293L287 195H232L189 0H157ZM292 611L41 225H206L292 611Z"  />
<glyph unicode="5" horiz-adv-x="348" d="M128 -12Q99 -12 79 -2T46 25T26 67T15 120L50 127Q52 73 71 46T130 18Q157 18 181 42T225 106T255 193T267 289Q267 333 252 356T204 380Q177 380 153 364T105 320L83 338L156 667H370L364 637H182L121 360Q141 386 162 398T211 410Q253 410 277 377T301 288Q301 234 288 180T251 84T196 15T128 -12Z"  />
<glyph unicode="6" horiz-adv-x="350" d="M137 -12Q108 -12 90 1T61 34T47 81T43 135Q43 160 48 210T64 320T93 444T137 559T197 644T277 677Q315 677 344 647T377 563L346 552Q344 595 326 621T275 647Q239 647 211 616T162 536T125 431T99 323Q97 315 97 314T96 304Q106 323 118 341T146 374T178 397T215 406Q254 406 281 376T308 282Q308 240 298 189T266 94T212 19T137 -12ZM143 18Q165 18 184 32T217 68T243 119T261 178T271 236T275 286Q275 322 261 349T210 376Q190 376 172 365T139 335T110 293T85 246Q80 222 77 191T73 133Q73 79 89 49T143 18Z"  />
<glyph unicode="7" horiz-adv-x="278" d="M25 0L305 637H111L117 667H347L342 645L60 0H25Z"  />
<glyph unicode="8" horiz-adv-x="348" d="M133 -12Q83 -12 52 16T20 109Q20 180 57 244T170 347Q147 369 129 407T110 487Q110 518 120 552T148 613T194 659T256 677Q276 677 295 671T328 650T351 612T360 556Q360 511 347 477T313 416T269 372T222 342Q250 315 267 275T285 193Q285 148 273 111T239 46T191 4T133 -12ZM199 359Q217 366 239 382T280 422T312 481T325 559Q325 601 307 623T251 646Q230 646 211 633T177 598T154 545T145 480Q145 442 161 408T199 359ZM132 18Q154 18 175 32T212 70T239 126T250 195Q250 223 244 246T229 286T210 315T193 331Q169 322 145 302T101 254T69 191T56 114Q56 62 79 40T132 18Z"  />
<glyph unicode="9" horiz-adv-x="350" d="M252 678Q281 678 299 665T328 632T342 585T346 531Q346 506 341 456T325 346T296 222T252 107T191 22T112 -11Q74 -11 45 19T12 103L43 114Q45 71 63 45T114 19Q150 19 178 50T227 130T264 235T290 343Q292 351 292 352T293 362Q283 342 271 324T243 292T211 269T174 260Q135 260 108 290T81 384Q81 426 91 477T123 572T177 647T252 678ZM246 648Q223 648 205 634T172 598T146 547T128 488T118 430T114 380Q114 344 128 317T179 290Q199 290 217 301T250 331T279 373T304 420Q309 444 312 475T316 533Q316 587 300 617T246 648Z"  />
<glyph unicode=":" horiz-adv-x="208" d="M52 -9Q39 -9 31 -1T22 21Q22 36 32 46T58 56Q71 56 79 48T88 26Q88 11 78 1T52 -9ZM148 425Q135 425 127 433T118 455Q118 470 128 480T154 490Q167 490 175 482T184 460Q184 445 174 435T148 425Z"  />
<glyph unicode=";" horiz-adv-x="208" d="M89 18Q89 -1 82 -20T61 -57T32 -88T0 -112L-18 -92Q10 -77 29 -54T54 -8H48Q37 -8 30 0T22 20Q22 35 32 45T57 56Q71 56 80 47T89 18ZM148 425Q135 425 127 433T118 455Q118 470 128 480T154 490Q167 490 175 482T184 460Q184 445 174 435T148 425Z"  />
<glyph unicode="&lt;" horiz-adv-x="374" d="M46 324L51 345L402 503L393 465L89 332L334 200L327 166L46 324Z"  />
<glyph unicode="=" horiz-adv-x="374" d="M67 418L74 448H390L383 418H67ZM23 220L30 250H346L339 220H23Z"  />
<glyph unicode="&gt;" horiz-adv-x="374" d="M11 166L20 204L325 336L79 469L86 503L367 345L362 324L11 166Z"  />
<glyph unicode="?" horiz-adv-x="302" d="M131 169Q124 183 121 200T118 232Q118 267 132 295T166 347T211 393T255 439T290 492T304 557Q304 574 299 590T284 619T258 640T223 648Q198 648 182 642T147 621L134 648Q157 665 178 671T223 678Q251 678 272 668T308 641T330 604T337 563Q337 523 323 492T289 434T244 384T200 339T165 292T151 240Q151 229 153 213T161 186L131 169ZM103 -9Q90 -9 82 -1T73 21Q73 36 83 46T109 56Q122 56 130 48T139 26Q139 11 129 1T103 -9Z"  />
<glyph unicode="@" horiz-adv-x="569" d="M276 -70Q228 -70 188 -50T118 7T72 97T55 216Q55 296 80 372T149 507T248 603T368 639Q453 639 503 575T554 392Q554 324 542 268T510 171T468 108T422 85Q390 85 374 106T357 157V163Q348 149 338 135T315 110T287 92T254 85Q238 85 223 91T195 111T174 147T166 204Q166 255 178 307T214 402T269 472T343 500Q372 500 390 477T414 422L426 482H456L393 183Q392 179 391 171T390 155Q390 131 397 122T420 112Q432 112 450 129T484 182T513 270T525 392Q525 446 513 487T480 555T430 595T368 609Q312 609 261 575T172 486T111 360T88 216Q88 154 103 107T144 26T205 -24T280 -41Q319 -41 350 -26T408 16L422 -7Q390 -37 353 -53T276 -70ZM254 112Q273 112 289 120T318 143T343 173T366 207L406 390Q403 405 399 420T387 446T368 465T343 473Q308 473 282 446T237 379T209 291T199 204Q199 159 212 136T254 112Z"  />
<glyph unicode="A" horiz-adv-x="312" d="M214 0L221 179H63L-8 0H-42L230 667H268L246 0H214ZM240 620L75 209H223L240 620Z"  />
<glyph unicode="B" horiz-adv-x="360" d="M18 0L165 667H241Q295 667 325 633T356 541Q356 508 349 475T327 415T290 367T239 339Q255 334 266 322T283 294T293 261T296 227Q296 186 285 145T253 72T200 20T128 0H18ZM204 358Q235 358 257 377T294 424T315 484T322 541Q322 590 299 613T235 637H191L129 358H204ZM134 30Q162 30 185 47T226 92T252 155T261 227Q261 281 238 304T170 328H122L56 30H134Z"  />
<glyph unicode="C" horiz-adv-x="357" d="M151 -12Q104 -12 76 27T47 158Q47 193 53 245T71 355T102 470T147 574T206 649T282 678Q328 678 352 645T384 555L353 549Q348 600 330 624T277 648Q244 648 217 620T169 548T131 448T104 338T88 234T82 154Q82 81 99 50T155 18Q184 18 208 41T257 106L283 90Q253 39 221 14T151 -12Z"  />
<glyph unicode="D" horiz-adv-x="386" d="M18 0L165 667H256Q277 667 297 658T334 627T361 570T371 482Q371 461 367 417T351 320T320 210T273 107T204 30T112 0H18ZM117 30Q158 30 190 58T247 129T289 225T316 328T332 420T337 482Q337 524 330 553T311 601T283 628T250 637H191L56 30H115H117Z"  />
<glyph unicode="E" horiz-adv-x="330" d="M18 0L165 667H375L369 637H191L129 358H300L293 328H122L56 30H234L228 0H18Z"  />
<glyph unicode="F" horiz-adv-x="330" d="M18 0L165 667H375L369 637H191L129 358H300L293 328H122L50 0H18Z"  />
<glyph unicode="G" horiz-adv-x="375" d="M151 -12Q129 -12 110 -3T77 26T55 78T47 158Q47 195 53 248T71 359T103 474T149 576T208 650T282 678Q309 678 327 667T358 638T376 598T384 555L353 549Q351 569 347 587T334 618T312 640T277 648Q245 648 219 621T171 551T133 454T105 344T88 239T82 154Q82 116 86 90T100 48T123 25T155 18Q183 18 203 37T244 85L289 291H188L194 321H327L273 74Q248 36 219 12T151 -12Z"  />
<glyph unicode="H" horiz-adv-x="395" d="M237 0L309 328H122L50 0H18L165 667H197L129 358H316L384 667H416L269 0H237Z"  />
<glyph unicode="I" horiz-adv-x="176" d="M18 0L165 667H197L50 0H18Z"  />
<glyph unicode="J" horiz-adv-x="298" d="M67 -12Q34 -12 8 2T-35 45L-10 65Q3 40 24 29T67 18Q109 18 131 41T166 121L287 667H319L198 121Q183 51 152 20T67 -12Z"  />
<glyph unicode="K" horiz-adv-x="372" d="M264 0L168 321L101 231L50 0H18L165 667H197L115 295L392 667H434L190 348L300 0H264Z"  />
<glyph unicode="L" horiz-adv-x="306" d="M18 0L165 667H197L56 30H234L228 0H18Z"  />
<glyph unicode="M" horiz-adv-x="508" d="M350 0L485 609L209 0H191L185 609L50 0H18L165 667H216L223 110L477 667H529L382 0H350Z"  />
<glyph unicode="N" horiz-adv-x="395" d="M237 0L178 579L50 0H18L165 667H197L257 95L384 667H416L269 0H237Z"  />
<glyph unicode="O" horiz-adv-x="396" d="M151 -12Q122 -12 102 1T70 38T53 92T47 158Q47 191 53 242T71 352T102 468T147 572T206 648T282 678Q311 678 331 664T363 627T381 572T387 507Q387 474 381 423T363 314T331 198T286 93T226 17T151 -12ZM155 18Q186 18 212 44T261 113T300 210T328 318T346 423T352 510Q352 573 336 610T277 648Q246 648 220 622T171 552T133 455T105 346T88 241T82 154Q82 91 97 55T155 18Z"  />
<glyph unicode="P" horiz-adv-x="341" d="M18 0L165 667H255Q302 667 332 631T362 531Q362 489 351 446T316 368T259 311T179 289H114L50 0H18ZM184 319Q220 319 247 338T292 388T318 456T327 531Q327 587 305 612T248 637H191L120 319H184Z"  />
<glyph unicode="Q" horiz-adv-x="396" d="M151 -12Q122 -12 102 1T70 38T53 92T47 158Q47 191 53 242T71 352T102 468T147 572T206 648T282 678Q311 678 331 664T363 627T381 572T387 507Q387 480 383 440T371 355T351 261T321 168T282 85T233 23L241 -30L211 -35L205 3Q192 -4 179 -8T151 -12ZM155 18Q180 18 200 34L174 200L205 205L227 60Q247 84 264 119T294 194T319 279T337 365T348 444T352 510Q352 573 336 610T277 648Q246 648 220 622T171 552T133 455T105 346T88 241T82 154Q82 91 97 55T155 18Z"  />
<glyph unicode="R" horiz-adv-x="366" d="M226 0L191 289H114L50 0H18L165 667H252Q303 667 333 630T364 534Q364 489 353 449T323 376T277 323T220 293L259 0H226ZM185 319Q222 319 249 338T293 389T319 458T328 534Q328 587 308 612T252 637H191L120 319H181H185Z"  />
<glyph unicode="S" horiz-adv-x="319" d="M102 -12Q67 -12 36 5T-12 50L16 74Q28 49 52 34T102 18Q126 18 149 29T190 61T220 114T231 186Q231 232 211 269T166 342T122 416T101 504Q101 541 114 573T148 628T196 665T250 678Q279 678 305 666T348 631L324 607Q297 648 250 648Q224 648 203 637T167 605T143 559T134 504Q134 464 154 429T198 356T243 277T263 186Q263 143 251 107T216 45T165 3T102 -12Z"  />
<glyph unicode="T" horiz-adv-x="287" d="M73 0L214 637H105L111 667H362L356 637H246L105 0H73Z"  />
<glyph unicode="U" horiz-adv-x="396" d="M158 -12Q108 -12 78 17T47 106Q47 132 52 154L165 667H197L84 154Q82 148 81 135T79 112Q79 64 102 41T161 18Q203 18 229 48T272 154L385 667H417L304 154Q284 67 251 28T158 -12Z"  />
<glyph unicode="V" horiz-adv-x="312" d="M83 0L105 667H137L111 47L359 667H393L121 0H83Z"  />
<glyph unicode="W" horiz-adv-x="490" d="M274 0L321 587L108 0H70L117 667H152L102 63L321 667H355L306 63L524 667H559L312 0H274Z"  />
<glyph unicode="X" horiz-adv-x="308" d="M212 0L167 300L-8 0H-46L157 340L108 667H143L182 378L347 667H386L192 337L246 0H212Z"  />
<glyph unicode="Y" horiz-adv-x="322" d="M91 0L155 289L95 667H129L177 328L377 667H413L187 289L123 0H91Z"  />
<glyph unicode="Z" horiz-adv-x="309" d="M-18 0L-12 31L317 637H123L129 667H359L353 637L23 30H225L219 0H-18Z"  />
<glyph unicode="[" horiz-adv-x="162" d="M-62 -190L130 678H241L234 648H153L-26 -160H55L48 -190H-62Z"  />
<glyph unicode="\" horiz-adv-x="177" d="M89 687H119V-20H89V687Z"  />
<glyph unicode="]" horiz-adv-x="162" d="M-79 -190L-72 -160H8L187 648H106L113 678H224L31 -190H-79Z"  />
<glyph unicode="^" horiz-adv-x="324" d="M294 333L250 636L72 333H38L242 667H268L324 333H294Z"  />
<glyph unicode="_" horiz-adv-x="279" d="M-72 -70L-65 -40H219L212 -70H-72Z"  />
<glyph unicode="`" horiz-adv-x="119" d="M164 556L101 700H142L188 556H164Z"  />
<glyph unicode="a" horiz-adv-x="351" d="M212 495Q236 495 259 474T293 407L309 483H339L232 0H202L217 66Q173 -12 117 -12Q75 -12 53 23T30 121Q30 149 35 188T50 268T75 350T110 423T155 475T212 495ZM210 468Q186 468 166 449T129 400T100 332T79 255T67 180T62 119Q62 63 77 39T124 15Q138 15 153 23T181 46T207 78T228 115L284 366Q282 387 276 405T260 438T237 460T210 468Z"  />
<glyph unicode="b" horiz-adv-x="351" d="M138 -12Q114 -12 91 9T57 76L41 0H11L158 667H188L133 417Q155 456 180 475T233 495Q275 495 297 460T320 362Q320 333 315 295T300 215T275 133T240 60T195 8T138 -12ZM140 15Q164 15 184 34T221 83T250 151T271 228T283 303T288 364Q288 420 273 444T226 468Q212 468 197 460T169 437T143 405T122 368L66 117Q67 96 73 78T90 45T113 23T140 15Z"  />
<glyph unicode="c" horiz-adv-x="294" d="M139 -12Q91 -12 62 24T32 141Q32 171 37 209T52 287T79 363T117 430T166 477T227 495Q255 495 275 482T308 446L284 426Q273 448 257 458T223 468Q195 468 173 451T134 405T103 340T82 267T69 195T65 134Q65 70 85 43T139 15Q159 15 175 24T205 51L223 29Q200 6 182 -3T139 -12Z"  />
<glyph unicode="d" horiz-adv-x="351" d="M212 495Q236 495 259 474T293 407L350 667H380L232 0H202L217 66Q173 -12 117 -12Q75 -12 53 23T30 121Q30 149 35 188T50 268T75 350T110 423T155 475T212 495ZM210 468Q186 468 166 449T129 400T100 332T79 255T67 180T62 119Q62 63 77 39T124 15Q138 15 153 23T181 46T207 78T228 115L284 366Q282 387 276 405T260 438T237 460T210 468Z"  />
<glyph unicode="e" horiz-adv-x="346" d="M149 -12Q95 -12 63 24T31 140Q31 159 34 193T47 266T70 346T105 420T154 474T219 495Q239 495 257 489T290 466T312 424T320 359Q320 327 315 295T302 232H74Q69 207 67 184T64 141Q64 82 85 49T148 15Q171 15 195 33T237 79L260 60Q207 -12 149 -12ZM276 259Q281 284 284 307T288 355Q288 377 284 397T272 433T250 458T217 468Q188 468 165 447T125 395T97 327T79 259H276Z"  />
<glyph unicode="f" horiz-adv-x="202" d="M24 0L125 456H75L81 483H131L154 590Q162 630 186 653T246 677Q261 677 277 670T301 649L278 627Q271 640 262 645T243 650Q218 650 204 635T184 590L161 483H231L225 456H155L54 0H24Z"  />
<glyph unicode="g" horiz-adv-x="351" d="M81 -196Q52 -196 22 -183T-29 -144L-5 -120Q6 -140 30 -154T83 -169Q124 -169 151 -139T192 -43L219 66Q175 -12 117 -12Q81 -12 56 19T30 121Q30 149 35 188T49 268T74 350T109 423T155 475T213 495Q239 495 263 472T295 407L310 483H339L222 -43Q204 -124 170 -160T81 -196ZM124 15Q139 15 153 23T182 46T207 78T228 115L284 366Q283 384 277 402T261 435T238 459T210 468Q187 468 167 450T131 402T101 335T80 259T67 183T62 119Q62 60 78 38T124 15Z"  />
<glyph unicode="h" horiz-adv-x="342" d="M193 0L280 394Q282 399 283 408T284 423Q284 448 273 458T240 468Q224 468 208 460T177 438T147 407T122 371L41 0H11L158 667H188L133 415Q157 450 184 472T246 495Q281 495 298 477T315 428Q315 422 314 412T310 394L223 0H193Z"  />
<glyph unicode="i" horiz-adv-x="160" d="M154 566Q143 566 135 573T127 592Q127 606 138 615T160 624Q171 624 179 617T187 598Q187 584 176 575T154 566ZM11 0L118 483H148L41 0H11Z"  />
<glyph unicode="j" horiz-adv-x="160" d="M-59 -196Q-80 -196 -94 -188T-115 -157L-85 -145Q-82 -169 -58 -169Q-44 -169 -33 -155T-11 -96L118 483H148L19 -96Q5 -156 -14 -176T-59 -196ZM154 566Q143 566 135 573T127 592Q127 606 138 615T160 624Q171 624 179 617T187 598Q187 584 176 575T154 566Z"  />
<glyph unicode="k" horiz-adv-x="325" d="M217 0L161 244L70 132L41 0H11L158 667H188L81 182L325 483H358L181 265L247 0H217Z"  />
<glyph unicode="l" horiz-adv-x="160" d="M11 0L158 667H188L41 0H11Z"  />
<glyph unicode="m" horiz-adv-x="524" d="M375 0L462 394Q463 399 464 407T466 423Q466 468 422 468Q406 468 390 460T359 438T329 407T304 371L223 0H193L280 394Q282 402 283 410T284 425Q284 448 274 458T240 468Q224 468 208 460T177 438T147 407T122 371L41 0H11L118 483H148L133 415Q156 450 185 472T246 495Q280 495 297 477T315 431Q315 426 315 423T314 415Q340 451 368 473T428 495Q462 495 479 478T497 430Q497 420 496 411T492 394L405 0H375Z"  />
<glyph unicode="n" horiz-adv-x="342" d="M193 0L280 394Q282 401 283 409T284 423Q284 447 274 457T240 468Q224 468 208 460T177 438T147 407T122 371L41 0H11L118 483H148L133 415Q157 450 184 472T246 495Q278 495 296 478T315 428Q315 423 314 411T310 394L223 0H193Z"  />
<glyph unicode="o" horiz-adv-x="352" d="M130 -12Q87 -12 59 19T31 128Q31 179 42 242T78 362T137 457T221 495Q264 495 292 464T320 355Q320 304 309 241T273 121T214 26T130 -12ZM132 15Q156 15 177 32T216 78T246 143T269 217T283 290T288 354Q288 419 269 443T219 468Q194 468 173 451T135 405T105 340T82 265T68 191T63 128Q63 63 82 39T132 15Z"  />
<glyph unicode="p" horiz-adv-x="351" d="M138 -12Q114 -12 91 9T57 76L0 -184H-30L118 483H148L133 417Q155 456 180 475T233 495Q275 495 297 460T320 362Q320 333 315 295T300 215T275 133T240 60T195 8T138 -12ZM140 15Q164 15 184 34T221 83T250 151T271 228T283 303T288 364Q288 420 273 444T226 468Q212 468 197 460T169 437T143 405T122 368L66 117Q67 96 73 78T90 45T113 23T140 15Z"  />
<glyph unicode="q" horiz-adv-x="351" d="M212 495Q236 495 259 474T293 407L309 483H339L191 -184H161L217 66Q173 -12 117 -12Q75 -12 53 23T30 121Q30 149 35 188T50 268T75 350T110 423T155 475T212 495ZM210 468Q186 468 166 449T129 400T100 332T79 255T67 180T62 119Q62 63 77 39T124 15Q138 15 153 23T181 46T207 78T228 115L284 366Q282 387 276 405T260 438T237 460T210 468Z"  />
<glyph unicode="r" horiz-adv-x="227" d="M11 0L118 483H148L132 410Q156 450 185 471T265 492L257 457Q253 459 247 459T238 459Q202 459 172 432T121 362L41 0H11Z"  />
<glyph unicode="s" horiz-adv-x="278" d="M91 -12Q57 -12 31 2T-11 51L14 70Q25 44 45 30T95 15Q114 15 131 24T161 48T181 82T189 123Q189 149 180 169T158 208T129 243T100 279T78 319T69 368Q69 393 77 416T102 456T140 484T190 495Q219 495 243 481T280 441L256 422Q246 447 227 457T187 468Q149 468 125 442T100 373Q100 338 118 311T159 258T201 201T220 130Q220 100 210 75T183 30T142 -1T91 -12Z"  />
<glyph unicode="t" horiz-adv-x="212" d="M93 -12Q66 -12 51 2T36 45Q36 60 40 76L125 456H73L79 483H131L160 615H190L161 483H231L225 456H155L70 76Q68 68 67 60T66 45Q66 15 97 15Q117 15 133 34L150 14Q139 3 126 -4T93 -12Z"  />
<glyph unicode="u" horiz-adv-x="342" d="M148 483L61 89Q59 82 58 74T57 60Q57 36 67 26T101 15Q133 15 163 42T216 106L300 483H330L223 0H193L208 68Q184 33 157 11T95 -12Q63 -12 45 5T26 55Q26 60 27 72T31 89L118 483H148Z"  />
<glyph unicode="v" horiz-adv-x="279" d="M67 0L69 483H101L91 35L282 483H316L102 0H67Z"  />
<glyph unicode="w" horiz-adv-x="484" d="M280 0L285 440L96 0H66L73 483H105L90 47L276 483H312L304 47L483 483H517L310 0H280Z"  />
<glyph unicode="x" horiz-adv-x="286" d="M180 0L138 217L0 0H-34L126 245L79 483H111L148 274L279 483H313L160 245L212 0H180Z"  />
<glyph unicode="y" horiz-adv-x="279" d="M-55 -162Q-52 -166 -44 -167T-32 -169Q-15 -169 -4 -157T21 -115L66 -18L69 483H101L92 40L282 483H316L44 -123Q25 -165 7 -180T-35 -196Q-46 -196 -54 -194T-67 -188L-55 -162Z"  />
<glyph unicode="z" horiz-adv-x="275" d="M-13 0L-8 27L245 456H88L94 483H283L277 456L26 27H185L180 0H-13Z"  />
<glyph unicode="{" horiz-adv-x="187" d="M45 -190Q19 -190 0 -172T-20 -120Q-20 -112 -19 -104T-16 -92L39 157Q40 161 41 167T42 178Q42 200 33 214T3 229L10 259Q39 259 55 280T78 331L134 585Q145 636 172 657T234 678H266L259 648H227Q206 648 189 633T164 585L107 327Q100 295 86 273T43 240Q56 233 64 220T72 187Q72 179 71 171T68 153L13 -97Q12 -102 12 -105T11 -113Q11 -136 22 -148T48 -160H80L73 -190H45Z"  />
<glyph unicode="|" horiz-adv-x="174" d="M92 -20V687H122V-20H92Z"  />
<glyph unicode="}" horiz-adv-x="187" d="M141 678Q167 678 186 660T206 606Q206 601 205 592T202 580L147 331Q146 327 145 321T144 309Q144 288 153 274T183 259L176 229Q147 229 131 208T108 157L52 -97Q41 -148 14 -169T-48 -190H-80L-73 -160H-41Q-20 -160 -3 -145T22 -97L79 161Q86 193 100 215T143 248Q130 255 122 268T114 301Q114 309 115 317T118 335L173 585Q174 590 174 593T175 601Q175 624 164 636T138 648H106L113 678H141Z"  />
<glyph unicode="~" horiz-adv-x="376" d="M441 664Q432 627 420 587T390 512T350 456T298 433Q272 433 261 448T245 485T240 534T240 582T233 620T209 635Q175 635 150 583T99 431L70 436Q79 473 91 513T121 587T160 643T212 665Q238 665 249 650T265 613T270 564T270 515T277 477T301 462Q335 462 360 513T411 667L441 664Z"  />
<glyph unicode="&#xA0;" horiz-adv-x="180" />
<glyph unicode="&#xA1;" horiz-adv-x="208" d="M131 322L30 -184H-12L111 322H131ZM154 492Q167 492 175 484T184 462Q184 447 174 437T148 427Q135 427 127 435T118 457Q118 472 128 482T154 492Z"  />
<glyph unicode="&#xA2;" horiz-adv-x="294" d="M108 -8Q73 2 53 37T32 141Q32 171 37 208T52 284T77 360T114 426T161 473T220 494L236 565H266L250 492Q269 487 283 475T308 446L284 426Q269 456 243 464L143 15Q162 16 177 25T205 51L223 29Q200 6 182 -3T139 -12H137L118 -100H88L108 -8ZM65 134Q65 82 78 55T114 19L214 467Q188 464 167 446T130 399T101 335T81 263T69 193T65 134Z"  />
<glyph unicode="&#xA3;" horiz-adv-x="342" d="M41 297H128Q124 313 119 328T109 359T101 394T98 435Q98 482 111 526T146 603T197 657T261 677Q306 677 335 650T369 576L340 563Q335 599 317 623T261 647Q238 647 216 632T174 589T144 522T132 437Q132 395 143 363T163 297H240L234 267H167Q168 262 168 253Q168 219 157 187T130 128T93 78T54 43Q66 49 73 51T89 54Q105 54 119 49T145 36T169 24T194 18Q214 18 233 30T263 56L277 32Q262 13 238 1T188 -12Q166 -12 152 -6T128 7T107 21T81 28Q66 28 49 21T7 -7L-6 22Q20 37 45 61T90 116T122 179T135 246Q135 251 135 256T134 267H35L41 297Z"  />
<glyph unicode="&#xA4;" horiz-adv-x="348" d="M160 101Q129 101 109 113T77 147L-7 77L-28 104L64 179Q57 204 57 238Q57 272 62 307T76 377T99 442T130 498L72 571L99 593L152 524Q170 543 191 553T236 564Q267 564 287 552T320 519L406 590L427 563L333 486Q340 461 340 427Q340 393 335 357T321 287T298 222T266 166L325 92L298 70L244 140Q207 101 160 101ZM90 241Q90 223 93 204T105 170T128 145T164 135Q200 135 226 166T271 242T298 336T307 423Q307 445 303 464T291 497T268 520T232 529Q196 529 170 498T126 421T99 327T90 241Z"  />
<glyph unicode="&#xA5;" horiz-adv-x="322" d="M95 0L123 129H-7L0 159H130L159 289H29L35 319H154L99 667H133L181 328L381 667H417L209 319H318L312 289H191L162 159H283L276 129H155L127 0H95Z"  />
<glyph unicode="&#xA6;" horiz-adv-x="174" d="M92 -20V296H122V-20H92ZM92 371V687H122V371H92Z"  />
<glyph unicode="&#xA7;" horiz-adv-x="278" d="M258 314Q258 264 234 228T158 176Q176 156 189 128T203 70Q203 40 194 13T169 -35T130 -68T79 -81Q42 -81 15 -68T-31 -20L-5 -1Q6 -25 26 -39T79 -54Q98 -54 114 -45T144 -20T164 17T172 64Q172 88 164 107T142 142T114 174T85 208T64 247T55 297Q55 321 62 343T84 382T120 411T170 425Q110 480 110 545Q110 574 120 598T146 640T182 667T225 677Q293 677 323 624L298 606Q285 632 267 641T224 650Q207 650 192 642T165 620T148 588T141 549Q141 525 149 506T171 469T199 436T228 402T249 363T258 314ZM228 310Q228 345 214 368T188 405Q157 402 137 392T106 366T90 334T85 300Q85 274 100 246T141 194Q186 210 207 239T228 310Z"  />
<glyph unicode="&#xA8;" horiz-adv-x="252" d="M293 601Q293 588 284 579T262 570Q251 570 244 577T237 595Q237 608 246 617T268 626Q279 626 286 619T293 601ZM171 601Q171 588 162 579T140 570Q129 570 122 577T115 595Q115 608 124 617T146 626Q157 626 164 619T171 601Z"  />
<glyph unicode="&#xA9;" horiz-adv-x="778" d="M754 334Q754 263 727 200T652 90T542 16T408 -11Q337 -11 274 16T165 90T91 200T64 334Q64 405 91 468T164 578T274 652T408 679Q479 679 542 652T652 578T726 468T754 334ZM728 334Q728 400 703 458T634 559T532 628T408 653Q342 653 285 628T184 560T115 458T90 334Q90 268 115 210T183 109T284 40T408 15Q474 15 532 40T633 108T702 210T728 334ZM519 170Q492 147 460 133T388 119Q342 119 307 134T247 174T209 234T196 307Q196 359 216 403T270 480T345 531T433 550Q539 550 586 470L562 453Q544 488 511 505T433 523Q395 523 358 507T292 462T244 394T225 307Q225 274 237 245T270 194T322 159T388 146Q420 146 452 159T504 193L519 170Z"  />
<glyph unicode="&#xAA;" horiz-adv-x="273" d="M211 624Q188 624 169 603T137 550T117 483T110 420Q110 342 157 342Q177 342 197 363T229 408L263 563Q261 587 246 605T211 624ZM308 640L239 326H211L221 373Q204 343 184 331T148 318Q116 318 99 342T82 420Q82 453 90 492T114 566T153 624T208 648Q227 648 245 634T270 594L280 640H308Z"  />
<glyph unicode="&#xAB;" horiz-adv-x="273" d="M79 63L29 243L159 420H194L61 239L110 63H79ZM169 63L119 243L249 420H284L151 239L200 63H169Z"  />
<glyph unicode="&#xAC;" horiz-adv-x="374" d="M339 220H307L351 418H67L74 448H390L339 220Z"  />
<glyph unicode="&#xAD;" horiz-adv-x="230" d="M26 227L32 257H202L196 227H26Z"  />
<glyph unicode="&#xAE;" horiz-adv-x="494" d="M508 465Q508 421 492 383T446 315T378 270T295 253Q251 253 213 269T146 315T101 382T84 465Q84 509 100 548T146 615T213 660T296 677Q340 677 379 661T446 616T491 548T508 465ZM482 465Q482 504 468 538T428 597T368 636T295 651Q256 651 223 637T164 597T125 538T110 465Q110 427 124 393T164 334T222 294T295 279Q334 279 368 293T427 333T467 393T482 465ZM330 343L288 439H239L218 343H189L242 586H332Q359 586 380 570T401 522Q401 504 394 489T376 463T351 446T321 440L365 343H330ZM370 518Q370 538 358 548T329 559H265L245 467H315Q338 467 354 482T370 518Z"  />
<glyph unicode="&#xAF;" horiz-adv-x="240" d="M74 581L80 608H319L313 581H74Z"  />
<glyph unicode="&#xB0;" horiz-adv-x="273" d="M318 566Q318 543 309 523T285 488T250 465T207 456Q184 456 164 464T129 488T106 523T97 566Q97 589 105 609T129 644T164 668T207 677Q230 677 250 668T285 644T309 609T318 566ZM288 566Q288 599 264 623T207 647Q174 647 151 623T127 566Q127 533 150 510T206 486Q239 486 263 509T288 566Z"  />
<glyph unicode="&#xB1;" horiz-adv-x="374" d="M220 322L184 160H152L188 322H46L53 352H195L229 508H261L227 352H369L362 322H220ZM-12 60L-6 90H310L304 60H-12Z"  />
<glyph unicode="&#xB2;" horiz-adv-x="240" d="M73 421L78 445Q136 512 176 559T241 639T277 697T288 745Q288 774 273 787T237 801Q214 801 197 788T162 749L141 767Q162 796 185 811T237 827Q269 827 294 807T319 745Q319 720 307 694T270 633T206 553T112 447H255L250 421H73Z"  />
<glyph unicode="&#xB3;" horiz-adv-x="240" d="M278 545Q278 526 272 503T252 461T218 428T169 414Q134 414 111 433T80 485L106 498Q111 473 127 457T169 440Q190 440 205 451T229 480T243 517T248 556Q248 587 233 601T198 615Q191 615 184 615T173 614L179 641Q183 640 192 640T207 640Q238 640 262 667T287 743Q287 769 274 785T236 801Q211 801 194 787T161 750L141 767Q181 827 238 827Q276 827 296 806T317 743Q317 726 312 707T296 672T270 642T234 625Q254 618 266 597T278 545Z"  />
<glyph unicode="&#xB4;" horiz-adv-x="119" d="M93 556H67L177 700H220L93 556Z"  />
<glyph unicode="&#xB5;" horiz-adv-x="349" d="M1 -184H-29L118 483H148L61 89Q53 51 64 32T101 13Q117 13 133 21T164 42T192 72T217 107L300 483H330L240 76Q233 45 236 30T260 15Q262 15 266 15T275 16L272 -10Q264 -12 254 -12Q221 -12 211 8T208 70Q185 35 156 12T95 -12Q78 -12 65 -5T45 16L1 -184Z"  />
<glyph unicode="&#xB6;" horiz-adv-x="449" d="M250 -100L414 637H316L152 -100H122L216 323Q188 323 163 334T120 367T90 416T79 479Q79 514 93 548T134 608T195 651T273 667H450L280 -100H250Z"  />
<glyph unicode="&#xB7;" horiz-adv-x="208" d="M101 212Q88 212 80 220T71 242Q71 257 81 267T107 277Q120 277 128 269T137 247Q137 232 127 222T101 212Z"  />
<glyph unicode="&#xB8;" horiz-adv-x="151" d="M-17 -187Q-39 -187 -57 -179T-89 -152L-70 -128Q-50 -160 -14 -160Q11 -160 27 -142T43 -101Q43 -87 36 -79T15 -71Q-1 -71 -16 -86L-34 -74L16 11H46L3 -59Q8 -54 15 -52T27 -49Q48 -49 60 -64T73 -101Q73 -119 66 -134T46 -161T18 -180T-17 -187Z"  />
<glyph unicode="&#xB9;" horiz-adv-x="190" d="M139 421L217 777L145 713L128 733L230 821H257L169 421H139Z"  />
<glyph unicode="&#xBA;" horiz-adv-x="272" d="M163 318Q121 318 102 345T83 422Q83 448 90 486T113 561T154 622T214 648Q256 648 275 621T294 544Q294 518 287 480T264 405T223 344T163 318ZM163 344Q190 344 209 367T240 422T259 489T265 544Q265 621 213 621Q186 621 167 598T136 543T118 477T112 422Q112 344 163 344Z"  />
<glyph unicode="&#xBB;" horiz-adv-x="273" d="M104 420L154 240L24 63H-11L122 244L73 420H104ZM194 420L244 240L114 63H79L212 244L163 420H194Z"  />
<glyph unicode="&#xBC;" horiz-adv-x="514" d="M81 0H49L465 667H498L81 0ZM429 113L404 0H375L400 113H265L271 140L455 400H492L434 139H472L467 113H429ZM454 357L298 139H405L454 357ZM105 267L183 623L111 559L94 579L196 667H223L135 267H105Z"  />
<glyph unicode="&#xBD;" horiz-adv-x="544" d="M81 0H49L465 667H498L81 0ZM284 0L289 24Q347 91 387 138T452 218T488 276T499 324Q499 353 484 366T448 380Q425 380 408 367T373 328L352 346Q373 375 396 390T448 406Q480 406 505 386T530 324Q530 299 518 273T481 212T417 132T323 26H466L461 0H284ZM105 267L183 623L111 559L94 579L196 667H223L135 267H105Z"  />
<glyph unicode="&#xBE;" horiz-adv-x="550" d="M117 0H85L501 667H534L117 0ZM465 113L440 0H411L436 113H301L307 140L491 400H528L470 139H508L503 113H465ZM490 357L334 139H441L490 357ZM244 391Q244 372 238 349T218 307T184 274T135 260Q100 260 77 279T46 331L72 344Q77 319 93 303T135 286Q156 286 171 297T195 326T209 363T214 402Q214 433 199 447T164 461Q157 461 150 461T139 460L145 487Q149 486 158 486T173 486Q204 486 228 513T253 589Q253 615 240 631T202 647Q177 647 160 633T127 596L107 613Q147 673 204 673Q242 673 262 652T283 589Q283 572 278 553T262 518T236 488T200 471Q220 464 232 443T244 391Z"  />
<glyph unicode="&#xBF;" horiz-adv-x="256" d="M169 314Q176 300 179 283T182 251Q182 215 168 188T134 136T89 90T45 44T10 -9T-4 -74Q-4 -91 1 -107T16 -137T42 -157T77 -165Q102 -165 118 -159T153 -138L166 -165Q143 -182 122 -188T77 -195Q48 -195 27 -185T-8 -158T-30 -121T-37 -80Q-37 -41 -23 -9T11 49T56 99T100 144T135 191T149 243Q149 254 147 270T139 297L169 314ZM197 492Q210 492 218 484T227 462Q227 447 217 437T191 427Q178 427 170 435T161 457Q161 472 171 482T197 492Z"  />
<glyph unicode="&#xC0;" horiz-adv-x="312" d="M268 723L205 867H246L292 723H268ZM214 0L221 179H63L-8 0H-42L230 667H268L246 0H214ZM240 620L75 209H223L240 620Z"  />
<glyph unicode="&#xC1;" horiz-adv-x="312" d="M255 723H229L339 867H382L255 723ZM214 0L221 179H63L-8 0H-42L230 667H268L246 0H214ZM240 620L75 209H223L240 620Z"  />
<glyph unicode="&#xC2;" horiz-adv-x="312" d="M327 723L286 839L198 723H173L273 867H309L348 723H327ZM214 0L221 179H63L-8 0H-42L230 667H268L246 0H214ZM240 620L75 209H223L240 620Z"  />
<glyph unicode="&#xC3;" horiz-adv-x="312" d="M302 721Q279 721 273 738T266 777T262 816T243 834Q226 834 212 809T185 727H162Q168 754 175 778T193 821T218 850T250 861Q273 861 279 844T287 805T290 766T309 748Q326 748 340 773T368 855H391Q385 828 377 804T359 762T334 732T302 721ZM214 0L221 179H63L-8 0H-42L230 667H268L246 0H214ZM240 620L75 209H223L240 620Z"  />
<glyph unicode="&#xC4;" horiz-adv-x="312" d="M359 768Q359 755 350 746T328 737Q317 737 310 744T303 762Q303 775 312 784T334 793Q345 793 352 786T359 768ZM237 768Q237 755 228 746T206 737Q195 737 188 744T181 762Q181 775 190 784T212 793Q223 793 230 786T237 768ZM214 0L221 179H63L-8 0H-42L230 667H268L246 0H214ZM240 620L75 209H223L240 620Z"  />
<glyph unicode="&#xC5;" horiz-adv-x="312" d="M264 692Q233 692 214 712T195 764Q195 781 202 796T221 824T248 843T281 850Q312 850 331 830T350 778Q350 743 325 718T264 692ZM265 716Q290 716 308 733T326 777Q326 797 313 811T280 826Q255 826 237 808T219 765Q219 745 232 731T265 716ZM214 0L221 179H63L-8 0H-42L230 667H268L246 0H214ZM240 620L75 209H223L240 620Z"  />
<glyph unicode="&#xC6;" horiz-adv-x="509" d="M192 0L231 179H97L3 0H-32L326 667H549L543 637H365L303 358H474L467 328H296L230 30H408L402 0H192ZM328 615L113 209H238L328 615Z"  />
<glyph unicode="&#xC7;" horiz-adv-x="357" d="M106 -187Q84 -187 66 -179T34 -152L53 -128Q73 -160 109 -160Q134 -160 150 -142T166 -101Q166 -87 159 -79T138 -71Q122 -71 107 -86L89 -74L127 -9Q90 0 69 39T47 158Q47 193 53 245T71 355T102 470T147 574T206 649T282 678Q328 678 352 645T384 555L353 549Q348 600 330 624T277 648Q244 648 217 620T169 548T131 448T104 338T88 234T82 154Q82 81 99 50T155 18Q184 18 208 41T257 106L283 90Q254 41 223 16T155 -12L126 -59Q131 -54 138 -52T150 -49Q171 -49 183 -64T196 -101Q196 -119 189 -134T169 -161T141 -180T106 -187Z"  />
<glyph unicode="&#xC8;" horiz-adv-x="330" d="M286 723L223 867H264L310 723H286ZM18 0L165 667H375L369 637H191L129 358H300L293 328H122L56 30H234L228 0H18Z"  />
<glyph unicode="&#xC9;" horiz-adv-x="330" d="M275 723H249L359 867H402L275 723ZM18 0L165 667H375L369 637H191L129 358H300L293 328H122L56 30H234L228 0H18Z"  />
<glyph unicode="&#xCA;" horiz-adv-x="330" d="M349 723L308 839L220 723H195L295 867H331L370 723H349ZM18 0L165 667H375L369 637H191L129 358H300L293 328H122L56 30H234L228 0H18Z"  />
<glyph unicode="&#xCB;" horiz-adv-x="330" d="M380 768Q380 755 371 746T349 737Q338 737 331 744T324 762Q324 775 333 784T355 793Q366 793 373 786T380 768ZM258 768Q258 755 249 746T227 737Q216 737 209 744T202 762Q202 775 211 784T233 793Q244 793 251 786T258 768ZM18 0L165 667H375L369 637H191L129 358H300L293 328H122L56 30H234L228 0H18Z"  />
<glyph unicode="&#xCC;" horiz-adv-x="176" d="M200 723L137 867H178L224 723H200ZM18 0L165 667H197L50 0H18Z"  />
<glyph unicode="&#xCD;" horiz-adv-x="176" d="M187 723H161L271 867H314L187 723ZM18 0L165 667H197L50 0H18Z"  />
<glyph unicode="&#xCE;" horiz-adv-x="176" d="M261 723L220 839L132 723H107L207 867H243L282 723H261ZM18 0L165 667H197L50 0H18Z"  />
<glyph unicode="&#xCF;" horiz-adv-x="176" d="M293 768Q293 755 284 746T262 737Q251 737 244 744T237 762Q237 775 246 784T268 793Q279 793 286 786T293 768ZM171 768Q171 755 162 746T140 737Q129 737 122 744T115 762Q115 775 124 784T146 793Q157 793 164 786T171 768ZM18 0L165 667H197L50 0H18Z"  />
<glyph unicode="&#xD0;" horiz-adv-x="402" d="M34 0L104 319H42L49 349H111L181 667H272Q293 667 313 658T350 627T377 570T387 482Q387 461 383 417T367 320T336 210T289 107T220 30T128 0H34ZM136 319L72 30H133Q174 30 206 58T263 129T305 225T332 328T348 420T353 482Q353 524 346 553T327 601T299 628T266 637H207L143 349H240L233 319H136Z"  />
<glyph unicode="&#xD1;" horiz-adv-x="395" d="M345 721Q322 721 316 738T309 777T305 816T286 834Q269 834 255 809T228 727H205Q211 754 218 778T236 821T261 850T293 861Q316 861 322 844T330 805T333 766T352 748Q369 748 383 773T411 855H434Q428 828 420 804T402 762T377 732T345 721ZM237 0L178 579L50 0H18L165 667H197L257 95L384 667H416L269 0H237Z"  />
<glyph unicode="&#xD2;" horiz-adv-x="396" d="M309 723L246 867H287L333 723H309ZM151 -12Q122 -12 102 1T70 38T53 92T47 158Q47 191 53 242T71 352T102 468T147 572T206 648T282 678Q311 678 331 664T363 627T381 572T387 507Q387 474 381 423T363 314T331 198T286 93T226 17T151 -12ZM155 18Q186 18 212 44T261 113T300 210T328 318T346 423T352 510Q352 573 336 610T277 648Q246 648 220 622T171 552T133 455T105 346T88 241T82 154Q82 91 97 55T155 18Z"  />
<glyph unicode="&#xD3;" horiz-adv-x="396" d="M298 723H272L382 867H425L298 723ZM151 -12Q122 -12 102 1T70 38T53 92T47 158Q47 191 53 242T71 352T102 468T147 572T206 648T282 678Q311 678 331 664T363 627T381 572T387 507Q387 474 381 423T363 314T331 198T286 93T226 17T151 -12ZM155 18Q186 18 212 44T261 113T300 210T328 318T346 423T352 510Q352 573 336 610T277 648Q246 648 220 622T171 552T133 455T105 346T88 241T82 154Q82 91 97 55T155 18Z"  />
<glyph unicode="&#xD4;" horiz-adv-x="396" d="M371 723L330 839L242 723H217L317 867H353L392 723H371ZM151 -12Q122 -12 102 1T70 38T53 92T47 158Q47 191 53 242T71 352T102 468T147 572T206 648T282 678Q311 678 331 664T363 627T381 572T387 507Q387 474 381 423T363 314T331 198T286 93T226 17T151 -12ZM155 18Q186 18 212 44T261 113T300 210T328 318T346 423T352 510Q352 573 336 610T277 648Q246 648 220 622T171 552T133 455T105 346T88 241T82 154Q82 91 97 55T155 18Z"  />
<glyph unicode="&#xD5;" horiz-adv-x="396" d="M345 721Q322 721 316 738T309 777T305 816T286 834Q269 834 255 809T228 727H205Q211 754 218 778T236 821T261 850T293 861Q316 861 322 844T330 805T333 766T352 748Q369 748 383 773T411 855H434Q428 828 420 804T402 762T377 732T345 721ZM151 -12Q122 -12 102 1T70 38T53 92T47 158Q47 191 53 242T71 352T102 468T147 572T206 648T282 678Q311 678 331 664T363 627T381 572T387 507Q387 474 381 423T363 314T331 198T286 93T226 17T151 -12ZM155 18Q186 18 212 44T261 113T300 210T328 318T346 423T352 510Q352 573 336 610T277 648Q246 648 220 622T171 552T133 455T105 346T88 241T82 154Q82 91 97 55T155 18Z"  />
<glyph unicode="&#xD6;" horiz-adv-x="396" d="M401 768Q401 755 392 746T370 737Q359 737 352 744T345 762Q345 775 354 784T376 793Q387 793 394 786T401 768ZM279 768Q279 755 270 746T248 737Q237 737 230 744T223 762Q223 775 232 784T254 793Q265 793 272 786T279 768ZM151 -12Q122 -12 102 1T70 38T53 92T47 158Q47 191 53 242T71 352T102 468T147 572T206 648T282 678Q311 678 331 664T363 627T381 572T387 507Q387 474 381 423T363 314T331 198T286 93T226 17T151 -12ZM155 18Q186 18 212 44T261 113T300 210T328 318T346 423T352 510Q352 573 336 610T277 648Q246 648 220 622T171 552T133 455T105 346T88 241T82 154Q82 91 97 55T155 18Z"  />
<glyph unicode="&#xD7;" horiz-adv-x="374" d="M204 313L66 199L47 223L186 336L98 447L123 467L209 355L347 469L366 445L228 332L315 221L290 201L204 313Z"  />
<glyph unicode="&#xD8;" horiz-adv-x="396" d="M151 -12Q119 -12 99 3T67 44L41 0H8L54 80Q47 114 47 158Q47 191 53 242T71 352T102 468T147 572T206 648T282 678Q313 678 334 662T367 620L394 667H427L379 583Q387 546 387 507Q387 474 381 423T363 314T331 198T286 93T226 17T151 -12ZM82 129L345 582Q337 613 321 630T277 648Q246 648 220 622T171 552T133 455T105 346T88 241T82 154V129ZM155 18Q186 18 212 44T261 113T300 210T328 318T346 423T352 510Q352 517 352 523T351 536L88 82Q96 51 111 35T155 18Z"  />
<glyph unicode="&#xD9;" horiz-adv-x="396" d="M309 723L246 867H287L333 723H309ZM158 -12Q108 -12 78 17T47 106Q47 132 52 154L165 667H197L84 154Q82 148 81 135T79 112Q79 64 102 41T161 18Q203 18 229 48T272 154L385 667H417L304 154Q284 67 251 28T158 -12Z"  />
<glyph unicode="&#xDA;" horiz-adv-x="396" d="M298 723H272L382 867H425L298 723ZM158 -12Q108 -12 78 17T47 106Q47 132 52 154L165 667H197L84 154Q82 148 81 135T79 112Q79 64 102 41T161 18Q203 18 229 48T272 154L385 667H417L304 154Q284 67 251 28T158 -12Z"  />
<glyph unicode="&#xDB;" horiz-adv-x="396" d="M370 723L329 839L241 723H216L316 867H352L391 723H370ZM158 -12Q108 -12 78 17T47 106Q47 132 52 154L165 667H197L84 154Q82 148 81 135T79 112Q79 64 102 41T161 18Q203 18 229 48T272 154L385 667H417L304 154Q284 67 251 28T158 -12Z"  />
<glyph unicode="&#xDC;" horiz-adv-x="396" d="M401 768Q401 755 392 746T370 737Q359 737 352 744T345 762Q345 775 354 784T376 793Q387 793 394 786T401 768ZM279 768Q279 755 270 746T248 737Q237 737 230 744T223 762Q223 775 232 784T254 793Q265 793 272 786T279 768ZM158 -12Q108 -12 78 17T47 106Q47 132 52 154L165 667H197L84 154Q82 148 81 135T79 112Q79 64 102 41T161 18Q203 18 229 48T272 154L385 667H417L304 154Q284 67 251 28T158 -12Z"  />
<glyph unicode="&#xDD;" horiz-adv-x="322" d="M261 723H235L345 867H388L261 723ZM91 0L155 289L95 667H129L177 328L377 667H413L187 289L123 0H91Z"  />
<glyph unicode="&#xDE;" horiz-adv-x="341" d="M18 0L165 667H197L169 538H226Q275 538 304 501T333 402Q333 365 323 323T291 244T234 184T150 160H85L50 0H18ZM155 190Q191 190 218 209T263 259T289 327T298 402Q298 450 278 479T219 508H162L92 190H155Z"  />
<glyph unicode="&#xDF;" horiz-adv-x="396" d="M352 126Q352 100 343 76T318 32T278 0T226 -12Q189 -12 163 3T118 50L144 71Q155 51 173 33T226 15Q244 15 261 23T291 46T313 81T321 127Q321 161 303 185T262 233T222 284T203 353Q203 384 214 406T241 444T277 474T313 502T341 534T352 577Q352 610 333 630T275 650Q243 650 215 626T174 544L54 0H24L144 544Q159 611 196 644T278 677Q326 677 353 651T381 580Q381 549 370 529T343 492T307 463T272 436T244 404T233 358Q233 323 251 298T292 249T333 197T352 126Z"  />
<glyph unicode="&#xE0;" horiz-adv-x="351" d="M212 495Q236 495 259 474T293 407L309 483H339L232 0H202L217 66Q173 -12 117 -12Q75 -12 53 23T30 121Q30 149 35 188T50 268T75 350T110 423T155 475T212 495ZM210 468Q186 468 166 449T129 400T100 332T79 255T67 180T62 119Q62 63 77 39T124 15Q138 15 153 23T181 46T207 78T228 115L284 366Q282 387 276 405T260 438T237 460T210 468ZM244 556L181 700H222L268 556H244Z"  />
<glyph unicode="&#xE1;" horiz-adv-x="351" d="M212 495Q236 495 259 474T293 407L309 483H339L232 0H202L217 66Q173 -12 117 -12Q75 -12 53 23T30 121Q30 149 35 188T50 268T75 350T110 423T155 475T212 495ZM210 468Q186 468 166 449T129 400T100 332T79 255T67 180T62 119Q62 63 77 39T124 15Q138 15 153 23T181 46T207 78T228 115L284 366Q282 387 276 405T260 438T237 460T210 468ZM232 556H206L316 700H359L232 556Z"  />
<glyph unicode="&#xE2;" horiz-adv-x="351" d="M212 495Q236 495 259 474T293 407L309 483H339L232 0H202L217 66Q173 -12 117 -12Q75 -12 53 23T30 121Q30 149 35 188T50 268T75 350T110 423T155 475T212 495ZM210 468Q186 468 166 449T129 400T100 332T79 255T67 180T62 119Q62 63 77 39T124 15Q138 15 153 23T181 46T207 78T228 115L284 366Q282 387 276 405T260 438T237 460T210 468ZM304 556L263 672L175 556H150L250 700H286L325 556H304Z"  />
<glyph unicode="&#xE3;" horiz-adv-x="351" d="M212 495Q236 495 259 474T293 407L309 483H339L232 0H202L217 66Q173 -12 117 -12Q75 -12 53 23T30 121Q30 149 35 188T50 268T75 350T110 423T155 475T212 495ZM210 468Q186 468 166 449T129 400T100 332T79 255T67 180T62 119Q62 63 77 39T124 15Q138 15 153 23T181 46T207 78T228 115L284 366Q282 387 276 405T260 438T237 460T210 468ZM278 554Q255 554 249 571T242 610T238 649T219 667Q202 667 188 642T161 560H138Q144 587 151 611T169 654T194 683T226 694Q249 694 255 677T263 638T266 599T285 581Q302 581 316 606T344 688H367Q361 661 353 637T335 595T310 565T278 554Z"  />
<glyph unicode="&#xE4;" horiz-adv-x="351" d="M212 495Q236 495 259 474T293 407L309 483H339L232 0H202L217 66Q173 -12 117 -12Q75 -12 53 23T30 121Q30 149 35 188T50 268T75 350T110 423T155 475T212 495ZM210 468Q186 468 166 449T129 400T100 332T79 255T67 180T62 119Q62 63 77 39T124 15Q138 15 153 23T181 46T207 78T228 115L284 366Q282 387 276 405T260 438T237 460T210 468ZM336 601Q336 588 327 579T305 570Q294 570 287 577T280 595Q280 608 289 617T311 626Q322 626 329 619T336 601ZM214 601Q214 588 205 579T183 570Q172 570 165 577T158 595Q158 608 167 617T189 626Q200 626 207 619T214 601Z"  />
<glyph unicode="&#xE5;" horiz-adv-x="351" d="M212 495Q236 495 259 474T293 407L309 483H339L232 0H202L217 66Q173 -12 117 -12Q75 -12 53 23T30 121Q30 149 35 188T50 268T75 350T110 423T155 475T212 495ZM210 468Q186 468 166 449T129 400T100 332T79 255T67 180T62 119Q62 63 77 39T124 15Q138 15 153 23T181 46T207 78T228 115L284 366Q282 387 276 405T260 438T237 460T210 468ZM244 548Q213 548 194 568T175 620Q175 637 182 652T201 680T228 699T261 706Q292 706 311 686T330 634Q330 599 305 574T244 548ZM245 572Q270 572 288 589T306 633Q306 653 293 667T260 682Q235 682 217 664T199 621Q199 601 212 587T245 572Z"  />
<glyph unicode="&#xE6;" horiz-adv-x="553" d="M210 468Q186 468 166 449T129 400T100 332T79 255T67 180T62 119Q62 63 77 39T124 15Q138 15 153 23T181 46T207 78T228 115L284 366Q282 387 276 405T260 438T237 460T210 468ZM232 0H202L217 66Q173 -12 117 -12Q75 -12 53 23T30 121Q30 149 35 188T50 268T75 350T110 423T155 475T212 495Q236 495 259 474T293 407L309 483H339L322 405Q341 442 368 468T431 495Q451 495 468 489T499 466T519 424T527 359Q527 327 522 295T509 232H284Q279 207 277 184T274 141Q274 82 296 49T360 15Q383 15 406 33T447 79L470 60Q444 24 418 6T361 -12Q316 -12 289 15T257 111L232 0ZM483 259Q488 284 491 307T495 355Q495 377 492 397T482 433T461 458T429 468Q400 468 377 447T337 395T307 327T289 259H483Z"  />
<glyph unicode="&#xE7;" horiz-adv-x="294" d="M93 -187Q71 -187 53 -179T21 -152L40 -128Q60 -160 96 -160Q121 -160 137 -142T153 -101Q153 -87 146 -79T125 -71Q109 -71 94 -86L76 -74L114 -9Q76 -1 54 34T32 141Q32 171 37 209T52 287T79 363T117 430T166 477T227 495Q255 495 275 482T308 446L284 426Q273 448 257 458T223 468Q195 468 173 451T134 405T103 340T82 267T69 195T65 134Q65 70 85 43T139 15Q159 15 175 24T205 51L223 29Q201 6 183 -2T142 -12L113 -59Q118 -54 125 -52T137 -49Q158 -49 170 -64T183 -101Q183 -119 176 -134T156 -161T128 -180T93 -187Z"  />
<glyph unicode="&#xE8;" horiz-adv-x="346" d="M149 -12Q95 -12 63 24T31 140Q31 159 34 193T47 266T70 346T105 420T154 474T219 495Q239 495 257 489T290 466T312 424T320 359Q320 327 315 295T302 232H74Q69 207 67 184T64 141Q64 82 85 49T148 15Q171 15 195 33T237 79L260 60Q207 -12 149 -12ZM276 259Q281 284 284 307T288 355Q288 377 284 397T272 433T250 458T217 468Q188 468 165 447T125 395T97 327T79 259H276ZM258 556L195 700H236L282 556H258Z"  />
<glyph unicode="&#xE9;" horiz-adv-x="346" d="M149 -12Q95 -12 63 24T31 140Q31 159 34 193T47 266T70 346T105 420T154 474T219 495Q239 495 257 489T290 466T312 424T320 359Q320 327 315 295T302 232H74Q69 207 67 184T64 141Q64 82 85 49T148 15Q171 15 195 33T237 79L260 60Q207 -12 149 -12ZM276 259Q281 284 284 307T288 355Q288 377 284 397T272 433T250 458T217 468Q188 468 165 447T125 395T97 327T79 259H276ZM244 556H218L328 700H371L244 556Z"  />
<glyph unicode="&#xEA;" horiz-adv-x="346" d="M149 -12Q95 -12 63 24T31 140Q31 159 34 193T47 266T70 346T105 420T154 474T219 495Q239 495 257 489T290 466T312 424T320 359Q320 327 315 295T302 232H74Q69 207 67 184T64 141Q64 82 85 49T148 15Q171 15 195 33T237 79L260 60Q207 -12 149 -12ZM276 259Q281 284 284 307T288 355Q288 377 284 397T272 433T250 458T217 468Q188 468 165 447T125 395T97 327T79 259H276ZM315 556L274 672L186 556H161L261 700H297L336 556H315Z"  />
<glyph unicode="&#xEB;" horiz-adv-x="346" d="M149 -12Q95 -12 63 24T31 140Q31 159 34 193T47 266T70 346T105 420T154 474T219 495Q239 495 257 489T290 466T312 424T320 359Q320 327 315 295T302 232H74Q69 207 67 184T64 141Q64 82 85 49T148 15Q171 15 195 33T237 79L260 60Q207 -12 149 -12ZM276 259Q281 284 284 307T288 355Q288 377 284 397T272 433T250 458T217 468Q188 468 165 447T125 395T97 327T79 259H276ZM348 601Q348 588 339 579T317 570Q306 570 299 577T292 595Q292 608 301 617T323 626Q334 626 341 619T348 601ZM226 601Q226 588 217 579T195 570Q184 570 177 577T170 595Q170 608 179 617T201 626Q212 626 219 619T226 601Z"  />
<glyph unicode="&#xEC;" horiz-adv-x="160" d="M157 556L94 700H135L181 556H157ZM11 0L118 483H148L41 0H11Z"  />
<glyph unicode="&#xED;" horiz-adv-x="160" d="M143 556H117L227 700H270L143 556ZM11 0L118 483H148L41 0H11Z"  />
<glyph unicode="&#xEE;" horiz-adv-x="160" d="M218 556L177 672L89 556H64L164 700H200L239 556H218ZM11 0L118 483H148L41 0H11Z"  />
<glyph unicode="&#xEF;" horiz-adv-x="160" d="M249 601Q249 588 240 579T218 570Q207 570 200 577T193 595Q193 608 202 617T224 626Q235 626 242 619T249 601ZM127 601Q127 588 118 579T96 570Q85 570 78 577T71 595Q71 608 80 617T102 626Q113 626 120 619T127 601ZM11 0L118 483H148L41 0H11Z"  />
<glyph unicode="&#xF0;" horiz-adv-x="352" d="M159 555L271 589Q260 634 248 667L281 678Q288 656 293 636T303 598L382 622L388 598L308 573Q318 525 321 486T324 405Q324 368 320 323T305 232T280 142T244 64T196 9T134 -12Q80 -12 56 24T32 137Q32 187 44 249T81 366T139 458T218 495Q243 495 264 479T294 428Q293 454 289 490T277 564L165 530L159 555ZM134 15Q159 15 180 34T219 83T249 151T270 228T283 301T288 360Q288 378 285 397T273 431T252 457T218 468Q192 468 171 450T133 401T103 334T82 259T69 187T64 131Q64 96 69 74T85 38T107 20T134 15Z"  />
<glyph unicode="&#xF1;" horiz-adv-x="342" d="M193 0L280 394Q282 401 283 409T284 423Q284 447 274 457T240 468Q224 468 208 460T177 438T147 407T122 371L41 0H11L118 483H148L133 415Q157 450 184 472T246 495Q278 495 296 478T315 428Q315 423 314 411T310 394L223 0H193ZM282 554Q259 554 253 571T246 610T242 649T223 667Q206 667 192 642T165 560H142Q148 587 155 611T173 654T198 683T230 694Q253 694 259 677T267 638T270 599T289 581Q306 581 320 606T348 688H371Q365 661 357 637T339 595T314 565T282 554Z"  />
<glyph unicode="&#xF2;" horiz-adv-x="352" d="M130 -12Q87 -12 59 19T31 128Q31 179 42 242T78 362T137 457T221 495Q264 495 292 464T320 355Q320 304 309 241T273 121T214 26T130 -12ZM132 15Q156 15 177 32T216 78T246 143T269 217T283 290T288 354Q288 419 269 443T219 468Q194 468 173 451T135 405T105 340T82 265T68 191T63 128Q63 63 82 39T132 15ZM252 556L189 700H230L276 556H252Z"  />
<glyph unicode="&#xF3;" horiz-adv-x="352" d="M130 -12Q87 -12 59 19T31 128Q31 179 42 242T78 362T137 457T221 495Q264 495 292 464T320 355Q320 304 309 241T273 121T214 26T130 -12ZM132 15Q156 15 177 32T216 78T246 143T269 217T283 290T288 354Q288 419 269 443T219 468Q194 468 173 451T135 405T105 340T82 265T68 191T63 128Q63 63 82 39T132 15ZM238 556H212L322 700H365L238 556Z"  />
<glyph unicode="&#xF4;" horiz-adv-x="352" d="M130 -12Q87 -12 59 19T31 128Q31 179 42 242T78 362T137 457T221 495Q264 495 292 464T320 355Q320 304 309 241T273 121T214 26T130 -12ZM132 15Q156 15 177 32T216 78T246 143T269 217T283 290T288 354Q288 419 269 443T219 468Q194 468 173 451T135 405T105 340T82 265T68 191T63 128Q63 63 82 39T132 15ZM312 556L271 672L183 556H158L258 700H294L333 556H312Z"  />
<glyph unicode="&#xF5;" horiz-adv-x="352" d="M130 -12Q87 -12 59 19T31 128Q31 179 42 242T78 362T137 457T221 495Q264 495 292 464T320 355Q320 304 309 241T273 121T214 26T130 -12ZM132 15Q156 15 177 32T216 78T246 143T269 217T283 290T288 354Q288 419 269 443T219 468Q194 468 173 451T135 405T105 340T82 265T68 191T63 128Q63 63 82 39T132 15ZM286 554Q263 554 257 571T250 610T246 649T227 667Q210 667 196 642T169 560H146Q152 587 159 611T177 654T202 683T234 694Q257 694 263 677T271 638T274 599T293 581Q310 581 324 606T352 688H375Q369 661 361 637T343 595T318 565T286 554Z"  />
<glyph unicode="&#xF6;" horiz-adv-x="352" d="M130 -12Q87 -12 59 19T31 128Q31 179 42 242T78 362T137 457T221 495Q264 495 292 464T320 355Q320 304 309 241T273 121T214 26T130 -12ZM132 15Q156 15 177 32T216 78T246 143T269 217T283 290T288 354Q288 419 269 443T219 468Q194 468 173 451T135 405T105 340T82 265T68 191T63 128Q63 63 82 39T132 15ZM343 601Q343 588 334 579T312 570Q301 570 294 577T287 595Q287 608 296 617T318 626Q329 626 336 619T343 601ZM221 601Q221 588 212 579T190 570Q179 570 172 577T165 595Q165 608 174 617T196 626Q207 626 214 619T221 601Z"  />
<glyph unicode="&#xF7;" horiz-adv-x="374" d="M46 322L53 352H369L362 322H46ZM174 161Q161 161 153 169T144 191Q144 206 154 216T180 226Q193 226 201 218T210 196Q210 181 200 171T174 161ZM237 443Q224 443 216 451T207 473Q207 488 217 498T243 508Q256 508 264 500T273 478Q273 463 263 453T237 443Z"  />
<glyph unicode="&#xF8;" horiz-adv-x="352" d="M2 0L40 58Q31 86 31 128Q31 179 42 242T78 362T137 457T221 495Q245 495 265 486T299 454L318 483H349L311 425Q315 411 317 394T320 355Q320 304 309 241T273 121T214 26T130 -12Q105 -12 85 -3T52 29L33 0H2ZM132 15Q156 15 177 32T216 78T246 143T269 217T283 290T288 354Q288 363 288 371T286 387L72 60Q80 34 96 25T132 15ZM63 128Q63 119 63 111T64 96L278 423Q270 448 255 458T219 468Q194 468 173 451T135 405T105 340T82 265T68 191T63 128Z"  />
<glyph unicode="&#xF9;" horiz-adv-x="342" d="M148 483L61 89Q59 82 58 74T57 60Q57 36 67 26T101 15Q133 15 163 42T216 106L300 483H330L223 0H193L208 68Q184 33 157 11T95 -12Q63 -12 45 5T26 55Q26 60 27 72T31 89L118 483H148ZM248 556L185 700H226L272 556H248Z"  />
<glyph unicode="&#xFA;" horiz-adv-x="342" d="M148 483L61 89Q59 82 58 74T57 60Q57 36 67 26T101 15Q133 15 163 42T216 106L300 483H330L223 0H193L208 68Q184 33 157 11T95 -12Q63 -12 45 5T26 55Q26 60 27 72T31 89L118 483H148ZM234 556H208L318 700H361L234 556Z"  />
<glyph unicode="&#xFB;" horiz-adv-x="342" d="M148 483L61 89Q59 82 58 74T57 60Q57 36 67 26T101 15Q133 15 163 42T216 106L300 483H330L223 0H193L208 68Q184 33 157 11T95 -12Q63 -12 45 5T26 55Q26 60 27 72T31 89L118 483H148ZM308 556L267 672L179 556H154L254 700H290L329 556H308Z"  />
<glyph unicode="&#xFC;" horiz-adv-x="342" d="M148 483L61 89Q59 82 58 74T57 60Q57 36 67 26T101 15Q133 15 163 42T216 106L300 483H330L223 0H193L208 68Q184 33 157 11T95 -12Q63 -12 45 5T26 55Q26 60 27 72T31 89L118 483H148ZM339 601Q339 588 330 579T308 570Q297 570 290 577T283 595Q283 608 292 617T314 626Q325 626 332 619T339 601ZM217 601Q217 588 208 579T186 570Q175 570 168 577T161 595Q161 608 170 617T192 626Q203 626 210 619T217 601Z"  />
<glyph unicode="&#xFD;" horiz-adv-x="279" d="M-55 -162Q-52 -166 -44 -167T-32 -169Q-15 -169 -4 -157T21 -115L66 -18L69 483H101L92 40L282 483H316L44 -123Q25 -165 7 -180T-35 -196Q-46 -196 -54 -194T-67 -188L-55 -162ZM199 556H173L283 700H326L199 556Z"  />
<glyph unicode="&#xFE;" horiz-adv-x="351" d="M138 -12Q114 -12 91 9T57 76L0 -184H-30L158 667H188L133 417Q155 456 180 475T233 495Q275 495 297 460T320 362Q320 333 315 295T300 215T275 133T240 60T195 8T138 -12ZM140 15Q164 15 184 34T221 83T250 151T271 228T283 303T288 364Q288 420 273 444T226 468Q212 468 197 460T169 437T143 405T122 368L66 117Q67 96 73 78T90 45T113 23T140 15Z"  />
<glyph unicode="&#xFF;" horiz-adv-x="279" d="M-55 -162Q-52 -166 -44 -167T-32 -169Q-15 -169 -4 -157T21 -115L66 -18L69 483H101L92 40L282 483H316L44 -123Q25 -165 7 -180T-35 -196Q-46 -196 -54 -194T-67 -188L-55 -162ZM304 601Q304 588 295 579T273 570Q262 570 255 577T248 595Q248 608 257 617T279 626Q290 626 297 619T304 601ZM182 601Q182 588 173 579T151 570Q140 570 133 577T126 595Q126 608 135 617T157 626Q168 626 175 619T182 601Z"  />
<glyph unicode="&#x110;" horiz-adv-x="402" d="M34 0L104 319H42L49 349H111L181 667H272Q293 667 313 658T350 627T377 570T387 482Q387 461 383 417T367 320T336 210T289 107T220 30T128 0H34ZM136 319L72 30H133Q174 30 206 58T263 129T305 225T332 328T348 420T353 482Q353 524 346 553T327 601T299 628T266 637H207L143 349H240L233 319H136Z"  />
<glyph unicode="&#x131;" horiz-adv-x="160" d="M11 0L118 483H148L41 0H11Z"  />
<glyph unicode="&#x152;" horiz-adv-x="561" d="M244 0L261 80Q244 50 227 32T194 5T165 -8T141 -12Q117 -12 99 0T70 35T53 89T47 158Q47 192 53 243T71 352T103 468T150 572T212 648T292 677Q302 677 314 674T338 662T359 634T374 587L391 667H601L595 637H417L355 358H526L519 328H348L282 30H460L454 0H244ZM354 500Q354 573 339 610T285 647Q252 647 224 621T173 552T133 455T105 347T88 241T82 154Q82 127 85 102T95 59T114 29T147 18Q185 18 219 58T281 167L354 500Z"  />
<glyph unicode="&#x153;" horiz-adv-x="571" d="M302 232Q301 227 300 214T297 187T294 159T293 141Q293 74 316 45T375 15Q418 15 462 79L485 60Q459 24 434 6T376 -12Q321 -12 294 22T265 117Q239 57 207 23T128 -12Q81 -12 56 21T31 128Q31 185 43 249T79 368T138 459T219 495Q265 495 288 462T312 371Q338 431 371 463T446 495Q545 495 545 359Q545 324 540 289T527 232H302ZM501 259Q503 267 505 280T509 306T512 333T513 355Q513 411 495 439T444 468Q415 468 393 448T354 396T326 328T308 259H501ZM284 354Q284 416 267 442T217 468Q192 468 172 451T134 405T103 340T81 265T68 191T63 128Q63 69 79 42T130 14Q155 14 176 32T214 79T244 145T266 219T279 292T284 354Z"  />
<glyph unicode="&#x160;" horiz-adv-x="319" d="M247 723L208 867H229L269 751L358 867H383L283 723H247ZM102 -12Q67 -12 36 5T-12 50L16 74Q28 49 52 34T102 18Q126 18 149 29T190 61T220 114T231 186Q231 232 211 269T166 342T122 416T101 504Q101 541 114 573T148 628T196 665T250 678Q279 678 305 666T348 631L324 607Q297 648 250 648Q224 648 203 637T167 605T143 559T134 504Q134 464 154 429T198 356T243 277T263 186Q263 143 251 107T216 45T165 3T102 -12Z"  />
<glyph unicode="&#x161;" horiz-adv-x="278" d="M91 -12Q57 -12 31 2T-11 51L14 70Q25 44 45 30T95 15Q114 15 131 24T161 48T181 82T189 123Q189 149 180 169T158 208T129 243T100 279T78 319T69 368Q69 393 77 416T102 456T140 484T190 495Q219 495 243 481T280 441L256 422Q246 447 227 457T187 468Q149 468 125 442T100 373Q100 338 118 311T159 258T201 201T220 130Q220 100 210 75T183 30T142 -1T91 -12ZM195 556L156 700H177L217 584L306 700H331L231 556H195Z"  />
<glyph unicode="&#x178;" horiz-adv-x="322" d="M366 768Q366 755 357 746T335 737Q324 737 317 744T310 762Q310 775 319 784T341 793Q352 793 359 786T366 768ZM244 768Q244 755 235 746T213 737Q202 737 195 744T188 762Q188 775 197 784T219 793Q230 793 237 786T244 768ZM91 0L155 289L95 667H129L177 328L377 667H413L187 289L123 0H91Z"  />
<glyph unicode="&#x17D;" horiz-adv-x="309" d="M242 723L203 867H224L264 751L353 867H378L278 723H242ZM-18 0L-12 31L317 637H123L129 667H359L353 637L23 30H225L219 0H-18Z"  />
<glyph unicode="&#x17E;" horiz-adv-x="275" d="M-13 0L-8 27L245 456H88L94 483H283L277 456L26 27H185L180 0H-13ZM188 556L149 700H170L210 584L299 700H324L224 556H188Z"  />
<glyph unicode="&#x192;" horiz-adv-x="335" d="M-24 -161L70 267H20V297H77L142 590Q151 631 174 654T233 677Q248 677 263 671T290 650L267 631Q260 640 251 643T231 647Q205 647 192 630T174 587L110 297H210V267H103L8 -161H-24Z"  />
<glyph unicode="&#x2C6;" horiz-adv-x="175" d="M223 556L182 672L94 556H69L169 700H205L244 556H223Z"  />
<glyph unicode="&#x2C7;" horiz-adv-x="175" d="M140 556L101 700H122L162 584L251 700H276L176 556H140Z"  />
<glyph unicode="&#x2DA;" horiz-adv-x="155" d="M155 553Q124 553 105 573T86 625Q86 642 93 657T112 685T139 704T172 711Q203 711 222 691T241 639Q241 604 216 579T155 553ZM156 577Q181 577 199 594T217 638Q217 658 204 672T171 687Q146 687 128 669T110 626Q110 606 123 592T156 577Z"  />
<glyph unicode="&#x2DC;" horiz-adv-x="201" d="M210 554Q187 554 181 571T174 610T170 649T151 667Q134 667 120 642T93 560H70Q76 587 83 611T101 654T126 683T158 694Q181 694 187 677T195 638T198 599T217 581Q234 581 248 606T276 688H299Q293 661 285 637T267 595T242 565T210 554Z"  />
<glyph unicode="&#x2013;" horiz-adv-x="460" d="M26 227L32 257H432L426 227H26Z"  />
<glyph unicode="&#x2014;" horiz-adv-x="640" d="M26 227L32 257H612L606 227H26Z"  />
<glyph unicode="&#x2018;" horiz-adv-x="208" d="M138 547Q138 566 145 585T166 622T194 653T227 677L245 657Q217 642 198 619T173 573H179Q190 573 197 565T205 545Q205 530 195 520T170 509Q156 509 147 518T138 547Z"  />
<glyph unicode="&#x2019;" horiz-adv-x="208" d="M227 639Q227 620 220 601T199 564T170 533T138 509L120 529Q148 544 167 567T192 613H186Q175 613 168 621T160 641Q160 656 170 666T195 677Q209 677 218 668T227 639Z"  />
<glyph unicode="&#x201A;" horiz-adv-x="208" d="M89 18Q89 -1 82 -20T61 -57T32 -88T0 -112L-18 -92Q10 -77 29 -54T54 -8H48Q37 -8 30 0T22 20Q22 35 32 45T57 56Q71 56 80 47T89 18Z"  />
<glyph unicode="&#x201C;" horiz-adv-x="331" d="M259 547Q259 566 266 585T287 622T315 653T348 677L366 657Q338 642 319 619T294 573H300Q311 573 318 565T326 545Q326 530 316 520T291 509Q277 509 268 518T259 547ZM138 547Q138 566 145 585T166 622T194 653T227 677L245 657Q217 642 198 619T173 573H179Q190 573 197 565T205 545Q205 530 195 520T170 509Q156 509 147 518T138 547Z"  />
<glyph unicode="&#x201D;" horiz-adv-x="331" d="M227 639Q227 620 220 601T199 564T170 533T138 509L120 529Q148 544 167 567T192 613H186Q175 613 168 621T160 641Q160 656 170 666T195 677Q209 677 218 668T227 639ZM348 639Q348 620 341 601T320 564T291 533T259 509L241 529Q269 544 288 567T313 613H307Q296 613 289 621T281 641Q281 656 291 666T316 677Q330 677 339 668T348 639Z"  />
<glyph unicode="&#x201E;" horiz-adv-x="331" d="M89 18Q89 -1 82 -20T61 -57T32 -88T0 -112L-18 -92Q10 -77 29 -54T54 -8H48Q37 -8 30 0T22 20Q22 35 32 45T57 56Q71 56 80 47T89 18ZM210 18Q210 -1 203 -20T182 -57T153 -88T121 -112L103 -92Q131 -77 150 -54T175 -8H169Q158 -8 151 0T143 20Q143 35 153 45T178 56Q192 56 201 47T210 18Z"  />
<glyph unicode="&#x2020;" horiz-adv-x="251" d="M203 543L159 327H128L180 543L90 539L96 566L184 563L206 677H237L207 563L297 566L291 539L203 543Z"  />
<glyph unicode="&#x2021;" horiz-adv-x="251" d="M291 539L203 543L152 314L242 318L236 291L148 294L126 180H95L125 294L35 291L41 318L129 314L180 543L90 539L96 566L184 563L206 677H237L207 563L297 566L291 539Z"  />
<glyph unicode="&#x2022;" horiz-adv-x="358" d="M278 252Q278 230 269 211T245 177T210 154T168 145Q130 145 105 170T80 233Q80 255 89 274T113 308T148 331T190 340Q228 340 253 315T278 252Z"  />
<glyph unicode="&#x2026;" horiz-adv-x="624" d="M52 -9Q39 -9 31 -1T22 21Q22 36 32 46T58 56Q71 56 79 48T88 26Q88 11 78 1T52 -9ZM260 -9Q247 -9 239 -1T230 21Q230 36 240 46T266 56Q279 56 287 48T296 26Q296 11 286 1T260 -9ZM468 -9Q455 -9 447 -1T438 21Q438 36 448 46T474 56Q487 56 495 48T504 26Q504 11 494 1T468 -9Z"  />
<glyph unicode="&#x2030;" horiz-adv-x="817" d="M73 0L489 667H522L105 0H73ZM362 -12Q336 -12 318 -2T289 24T272 62T267 106Q267 149 279 187T312 253T357 298T408 314Q434 314 452 304T481 278T498 240T503 196Q503 152 491 115T458 49T413 4T362 -12ZM362 15Q381 15 400 28T435 66T460 123T470 194Q470 242 454 264T408 287Q388 287 369 274T335 236T310 179T300 108Q300 60 316 38T362 15ZM186 351Q160 351 142 361T113 387T96 425T91 469Q91 512 103 550T136 616T181 661T232 677Q258 677 276 667T305 641T322 603T327 559Q327 515 315 478T282 412T237 367T186 351ZM186 378Q205 378 224 391T259 429T284 486T294 557Q294 605 278 627T232 650Q212 650 193 637T159 599T134 542T124 471Q124 423 140 401T186 378ZM624 -12Q598 -12 580 -2T551 24T534 62T529 106Q529 149 541 187T574 253T619 298T670 314Q696 314 714 304T743 278T760 240T765 196Q765 152 753 115T720 49T675 4T624 -12ZM624 15Q643 15 662 28T697 66T722 123T732 194Q732 242 716 264T670 287Q650 287 631 274T597 236T572 179T562 108Q562 60 578 38T624 15Z"  />
<glyph unicode="&#x2039;" horiz-adv-x="183" d="M79 63L29 243L159 420H194L61 239L110 63H79Z"  />
<glyph unicode="&#x203A;" horiz-adv-x="183" d="M104 420L154 240L24 63H-11L122 244L73 420H104Z"  />
<glyph unicode="&#x2044;" horiz-adv-x="100" d="M-123 0H-155L261 667H294L-123 0Z"  />
<glyph unicode="&#x20AC;" horiz-adv-x="366" d="M161 -12Q114 -12 86 27T57 158Q57 194 63 247H18L25 277H67Q71 304 76 333T89 391H50L57 421H97Q110 470 129 516T172 599T226 656T292 678Q338 678 362 645T394 555L363 549Q358 600 340 624T287 648Q260 648 238 630T196 580T161 507T133 421H276L269 391H125Q117 362 112 333T103 277H244L237 247H99Q95 219 94 195T92 154Q92 81 109 50T165 18Q194 18 218 41T267 106L293 90Q263 39 231 14T161 -12Z"  />
<glyph unicode="&#x2122;" horiz-adv-x="374" d="M356 447L396 629L301 447H293L278 629L238 447H210L258 667H301L311 510L389 667H432L384 447H356ZM175 641L132 447H104L147 641H105L110 667H222L217 641H175Z"  />
<glyph unicode="&#xF656;" horiz-adv-x="190" d="M46 0L124 356L52 292L35 312L137 400H164L76 0H46Z"  />
<glyph unicode="&#xF657;" horiz-adv-x="240" d="M-20 0L-15 24Q43 91 83 138T148 218T184 276T195 324Q195 353 180 366T144 380Q121 380 104 367T69 328L48 346Q69 375 92 390T144 406Q176 406 201 386T226 324Q226 299 214 273T177 212T113 132T19 26H162L157 0H-20Z"  />
<glyph unicode="&#xF658;" horiz-adv-x="240" d="M185 124Q185 105 179 82T159 40T125 7T76 -7Q41 -7 18 12T-13 64L13 77Q18 52 34 36T76 19Q97 19 112 30T136 59T150 96T155 135Q155 166 140 180T105 194Q98 194 91 194T80 193L86 220Q90 219 99 219T114 219Q145 219 169 246T194 322Q194 348 181 364T143 380Q118 380 101 366T68 329L48 346Q88 406 145 406Q183 406 203 385T224 322Q224 305 219 286T203 251T177 221T141 204Q161 197 173 176T185 124Z"  />
<glyph unicode="&#xF659;" horiz-adv-x="240" d="M155 113L130 0H101L126 113H-9L-3 140L181 400H218L160 139H198L193 113H155ZM180 357L24 139H131L180 357Z"  />


</font>
</defs>
</svg>
